<svg width="18" height="14" viewBox="0 0 18 14" fill="none" xmlns="http://www.w3.org/2000/svg">
<path d="M0.100098 7.43701C0.0342512 7.3011 0 7.152 0 7.00098C0 6.84995 0.0342512 6.70085 0.100098 6.56494C0.229098 6.29694 3.347 0.000976562 9 0.000976562C14.653 0.000976562 17.7709 6.30094 17.8999 6.56494C17.965 6.70108 17.999 6.85009 17.999 7.00098C17.999 7.15187 17.965 7.30088 17.8999 7.43701C17.7689 7.70501 14.651 14 9 14C3.349 14 0.229098 7.70001 0.100098 7.43701ZM2.13818 7C2.88418 8.29 5.352 12 9 12C12.648 12 15.1188 8.293 15.8618 7C15.1148 5.709 12.648 2 9 2C5.352 2 2.88218 5.706 2.13818 7ZM6 7C6 6.20435 6.3163 5.44152 6.87891 4.87891C7.44152 4.3163 8.20435 4 9 4C9.79524 4.00132 10.5573 4.31805 11.1196 4.88037C11.682 5.44269 11.9987 6.20476 12 7C12 7.79565 11.6837 8.55849 11.1211 9.12109C10.5585 9.6837 9.79565 10 9 10C8.20435 10 7.44152 9.6837 6.87891 9.12109C6.3163 8.55849 6 7.79565 6 7ZM8 7C8 7.26522 8.10543 7.5195 8.29297 7.70703C8.4805 7.89457 8.73478 8 9 8C9.26522 8 9.5195 7.89457 9.70703 7.70703C9.89457 7.5195 10 7.26522 10 7C10 6.73478 9.89457 6.4805 9.70703 6.29297C9.5195 6.10543 9.26522 6 9 6C8.73478 6 8.4805 6.10543 8.29297 6.29297C8.10543 6.4805 8 6.73478 8 7Z" fill="#727174"/>
</svg>
