<svg width="32" height="26" viewBox="0 0 32 26" fill="none" xmlns="http://www.w3.org/2000/svg">
<path d="M21.3202 4.54137C21.5175 4.6693 21.685 4.83825 21.8111 5.03679C21.9372 5.23534 22.019 5.45868 22.0509 5.69171C22.1434 6.26356 22.1863 6.84407 22.2346 7.42044C22.2805 7.96888 22.2785 8.52213 22.3484 9.06708C22.4393 9.79161 22.5832 10.5096 22.7054 11.228C22.6884 11.2414 22.6704 11.2533 22.6506 11.2623C22.293 11.3618 21.9349 11.4576 21.5772 11.5571C20.7511 11.788 20.8243 11.6612 21.0374 12.492C21.1009 12.7481 21.2277 12.8065 21.4738 12.7361C21.9843 12.584 22.4996 12.4552 23.0229 12.3128L23.4509 13.4367C23.4349 13.4538 23.4181 13.4699 23.3997 13.4844C23.0548 13.6698 22.7163 13.8578 22.3685 14.0381C21.7781 14.3507 21.7363 14.2908 22.0944 14.9386C22.2945 15.3001 22.3329 15.3128 22.6821 15.1218C23.108 14.8942 23.5325 14.6686 23.9506 14.4423L24.6694 15.5802C24.3379 15.8264 24.0263 16.0608 23.7137 16.2902C23.0524 16.7756 23.0746 16.6681 23.5619 17.3421C23.7159 17.5534 23.8576 17.5636 24.0603 17.4105C24.479 17.0853 24.9131 16.7749 25.3451 16.4586C25.7883 16.8911 26.2007 17.315 26.6335 17.7115C27.6329 18.5792 28.72 19.3394 29.878 19.9805C30.2893 20.2148 30.6425 20.5391 30.9116 20.9285C31.1807 21.318 31.3591 21.7632 31.4328 22.2308C31.4438 22.3371 31.4117 22.4429 31.3447 22.5261C30.9123 23.0143 30.3439 23.3622 29.7125 23.525C28.9707 23.7101 28.1979 23.7323 27.4468 23.5898C26.2205 23.3528 25.0424 22.9127 23.9607 22.2881C21.1066 20.7551 18.429 18.9137 15.9766 16.7967C14.0376 15.1552 12.1189 13.4899 10.1898 11.8392C9.01931 10.8366 7.83332 9.85468 6.68858 8.82541C5.76975 8.00824 4.98004 7.05599 4.34738 6.00159C4.32143 5.97024 4.30204 5.93397 4.29056 5.89492C4.27908 5.85588 4.27607 5.81531 4.28092 5.7749C4.28578 5.7345 4.2987 5.69515 4.31911 5.65994C4.33951 5.62473 4.36669 5.59412 4.39933 5.56981C4.58378 5.39091 4.75622 5.20008 4.91534 4.99832C5.80809 3.76866 6.98567 2.77388 8.34771 2.10016C9.29082 1.66254 10.1659 1.09075 10.945 0.402289C11.0026 0.351784 11.066 0.308409 11.1343 0.273645C11.1947 0.229653 11.2644 0.200128 11.3379 0.186552C11.4114 0.172976 11.4873 0.175968 11.5594 0.195472C11.6316 0.214976 11.6978 0.250301 11.7545 0.299058C11.8111 0.347815 11.8562 0.408713 11.8862 0.477159C12.0318 0.755064 12.1414 1.05077 12.2106 1.35679C12.3725 2.06228 12.5213 2.77167 12.6381 3.48341C12.803 4.46715 13.2973 5.36611 14.0399 6.03209C15.1436 7.01988 16.4511 7.75216 17.87 8.17744C18.4746 8.38218 18.6913 8.20472 18.6995 7.57664C18.7012 7.12221 18.7636 6.67031 18.8847 6.23233C19.0597 5.5728 19.4499 4.99022 19.9934 4.57768C20.164 4.43006 20.378 4.3422 20.6031 4.32638C20.8281 4.31057 21.0519 4.36796 21.2414 4.49027L21.3202 4.54137ZM6.87251 10.0654C9.47205 12.2949 12.0803 14.5144 14.6824 16.7395C16.8947 18.6805 19.2694 20.4279 21.7806 21.9625C23.0698 22.7951 24.4479 23.4815 25.8893 24.0082C26.7973 24.3962 27.7875 24.5507 28.7707 24.459C29.7538 24.3673 30.699 24.0323 31.5195 23.4829C31.4675 23.6711 31.4419 23.804 31.3957 23.924C31.2261 24.3612 30.9527 24.7505 30.5981 25.0574C30.2436 25.3643 29.8188 25.5797 29.3619 25.685C28.4154 25.9524 27.4253 26.0311 26.4485 25.9166C24.8113 25.7316 23.2067 25.3294 21.6757 24.7205C19.3985 23.8657 17.2634 22.6721 15.3427 21.1797C14.3665 20.4186 13.4115 19.633 12.4254 18.887C10.9259 17.8566 9.35329 16.9364 7.72016 16.1344C5.88824 15.1579 4.13367 14.043 2.47196 12.7987C1.61388 12.1645 0.987223 11.2662 0.688093 10.242C0.552099 9.87701 0.536352 9.4779 0.643984 9.10356C0.751615 8.72922 0.976591 8.39907 1.28568 8.16204C2.05422 7.54689 2.83806 6.95337 3.63388 6.33897C4.49404 7.756 5.58925 9.01611 6.87251 10.0654Z" fill="white"/>
</svg>
